<svg viewBox="0 0 200 200" xmlns="http://www.w3.org/2000/svg" role="img" aria-label="ANOUANZÊ ERP">
  <!-- Cercle extérieur avec accent orange -->
  <circle cx="100" cy="88" r="78" fill="none" stroke="#F28C25" stroke-width="5" stroke-dasharray="340 150" stroke-linecap="round" transform="rotate(-30 100 88)"/>
  <circle cx="100" cy="88" r="78" fill="none" stroke="#146C43" stroke-width="5" stroke-dasharray="280 210" stroke-linecap="round" transform="rotate(120 100 88)"/>

  <!-- Main verte (sol, protection) -->
  <path d="M30 135 Q65 115 100 122 Q135 115 170 135 Q148 162 100 155 Q52 162 30 135Z" fill="#2E9E4F" opacity="0.85"/>

  <!-- Personnage central — vert foncé (leader) -->
  <circle cx="100" cy="52" r="13" fill="#146C43"/>
  <path d="M78 100 Q100 78 122 100" fill="#146C43"/>
  <line x1="78" y1="82" x2="62" y2="65" stroke="#146C43" stroke-width="5" stroke-linecap="round"/>
  <line x1="122" y1="82" x2="138" y2="65" stroke="#146C43" stroke-width="5" stroke-linecap="round"/>

  <!-- Personnage gauche — orange -->
  <circle cx="58" cy="67" r="10" fill="#F28C25"/>
  <path d="M38 105 Q58 86 78 105" fill="#F28C25"/>
  <line x1="38" y1="90" x2="26" y2="76" stroke="#F28C25" stroke-width="4" stroke-linecap="round"/>
  <line x1="78" y1="90" x2="88" y2="76" stroke="#F28C25" stroke-width="4" stroke-linecap="round"/>

  <!-- Personnage droit — orange -->
  <circle cx="142" cy="67" r="10" fill="#F28C25"/>
  <path d="M122 105 Q142 86 162 105" fill="#F28C25"/>
  <line x1="122" y1="90" x2="112" y2="76" stroke="#F28C25" stroke-width="4" stroke-linecap="round"/>
  <line x1="162" y1="90" x2="174" y2="76" stroke="#F28C25" stroke-width="4" stroke-linecap="round"/>
</svg>
